<?xml version="1.0" encoding="iso-8859-1"?>
<!-- Generator: Adobe Illustrator 19.0.0, SVG Export Plug-In . SVG Version: 6.00 Build 0)  -->
<svg version="1.1" id="Capa_1" xmlns="http://www.w3.org/2000/svg" xmlns:xlink="http://www.w3.org/1999/xlink" x="0px" y="0px"
	 viewBox="0 0 512 512" style="enable-background:new 0 0 512 512;" xml:space="preserve">
<g>
	<path style="fill:#F98C96;" d="M162.133,145.033h187.733c18.85,0,34.133,15.283,34.133,34.133v51.2l0,0H128l0,0v-51.2
		C128,160.316,143.283,145.033,162.133,145.033z"/>
	<rect x="42.667" y="349.833" style="fill:#F98C96;" width="426.667" height="119.467"/>
</g>
<path style="fill:#FFF69A;" d="M102.4,230.367h307.2c18.85,0,34.133,15.283,34.133,34.133v85.333l0,0H68.267l0,0V264.5
	C68.267,245.65,83.55,230.367,102.4,230.367z"/>
<path style="fill:#B11E48;" d="M503.467,460.767H8.533c-4.71,0-8.533,3.823-8.533,8.533c0.026,23.552,19.115,42.641,42.667,42.667
	h426.667c23.552-0.026,42.641-19.115,42.667-42.667C512,464.589,508.177,460.767,503.467,460.767z"/>
<path style="fill:#AABECE;" d="M256,153.567c-4.71,0-8.533-3.823-8.533-8.533v-51.2c0-4.71,3.823-8.533,8.533-8.533
	c4.71,0,8.533,3.823,8.533,8.533v51.2C264.533,149.744,260.71,153.567,256,153.567z"/>
<path style="fill:#F98C96;" d="M304.171,10.207C290.756-1.535,271.292-3.285,256,5.889c-15.292-9.182-34.756-7.433-48.171,4.318
	c-14.157,12.501-15.505,34.108-3.004,48.265c0.939,1.067,1.946,2.065,3.004,3.004L256,105.379l48.171-43.904
	c14.157-12.51,15.497-34.125,2.987-48.29C306.227,12.127,305.229,11.128,304.171,10.207L304.171,10.207z"/>
<path style="fill:#DD3E46;" d="M469.333,341.3H42.667c-4.71,0-8.533,3.823-8.533,8.533v34.133c0,4.71,3.823,8.533,8.533,8.533
	c11.58,0.196,22.46,5.589,29.628,14.686c19.029,22.895,53.018,26.018,75.913,6.989c2.543-2.108,4.881-4.454,6.989-6.989
	c12.467-16.375,35.84-19.541,52.207-7.083c2.671,2.031,5.052,4.412,7.083,7.083c19.038,22.904,53.035,26.027,75.938,6.989
	c2.543-2.108,4.881-4.454,6.989-6.989c12.476-16.375,35.866-19.533,52.241-7.057c2.662,2.022,5.035,4.403,7.057,7.057
	c19.063,22.904,53.077,26.027,75.989,6.963c2.526-2.108,4.864-4.437,6.963-6.963c7.185-9.105,18.074-14.498,29.67-14.686
	c4.71,0,8.533-3.823,8.533-8.533v-34.133C477.867,345.123,474.044,341.3,469.333,341.3z"/>
<g>
	<path style="fill:#D9176C;" d="M136.533,273.033h-17.067c-4.71,0-8.533-3.823-8.533-8.533s3.823-8.533,8.533-8.533h17.067
		c4.71,0,8.533,3.823,8.533,8.533S141.244,273.033,136.533,273.033z"/>
	<path style="fill:#D9176C;" d="M187.733,298.633h-17.067c-4.71,0-8.533-3.823-8.533-8.533c0-4.71,3.823-8.533,8.533-8.533h17.067
		c4.71,0,8.533,3.823,8.533,8.533C196.267,294.81,192.444,298.633,187.733,298.633z"/>
	<path style="fill:#D9176C;" d="M238.933,273.033h-17.067c-4.71,0-8.533-3.823-8.533-8.533s3.823-8.533,8.533-8.533h17.067
		c4.71,0,8.533,3.823,8.533,8.533S243.644,273.033,238.933,273.033z"/>
	<path style="fill:#D9176C;" d="M290.133,298.633h-17.067c-4.71,0-8.533-3.823-8.533-8.533c0-4.71,3.823-8.533,8.533-8.533h17.067
		c4.71,0,8.533,3.823,8.533,8.533C298.667,294.81,294.844,298.633,290.133,298.633z"/>
	<path style="fill:#D9176C;" d="M341.333,273.033h-17.067c-4.71,0-8.533-3.823-8.533-8.533s3.823-8.533,8.533-8.533h17.067
		c4.71,0,8.533,3.823,8.533,8.533S346.044,273.033,341.333,273.033z"/>
	<path style="fill:#D9176C;" d="M392.533,298.633h-17.067c-4.71,0-8.533-3.823-8.533-8.533c0-4.71,3.823-8.533,8.533-8.533h17.067
		c4.71,0,8.533,3.823,8.533,8.533C401.067,294.81,397.244,298.633,392.533,298.633z"/>
</g>
<path style="fill:#DD3E46;" d="M349.867,136.5H162.133c-23.552,0.026-42.641,19.115-42.667,42.667c0,4.71,3.823,8.533,8.533,8.533
	c6.016-0.051,11.793,2.355,15.991,6.665c15.07,13.867,38.246,13.867,53.316,0c8.755-8.832,23.006-8.892,31.838-0.137
	c0.043,0.043,0.094,0.094,0.137,0.137c15.07,13.867,38.246,13.867,53.316,0c4.198-4.309,9.984-6.716,16-6.665
	c6.025-0.026,11.802,2.372,16.026,6.665c15.078,13.867,38.272,13.867,53.35,0c4.224-4.284,10.001-6.69,16.026-6.665
	c4.71,0,8.533-3.823,8.533-8.533C392.508,155.615,373.419,136.525,349.867,136.5z"/>
<g>
</g>
<g>
</g>
<g>
</g>
<g>
</g>
<g>
</g>
<g>
</g>
<g>
</g>
<g>
</g>
<g>
</g>
<g>
</g>
<g>
</g>
<g>
</g>
<g>
</g>
<g>
</g>
<g>
</g>
</svg>
